<svg viewBox="-91 0 512 512" xmlns="http://www.w3.org/2000/svg"><path d="m295.796875 360.78125h-261.382813c-19.007812 0-34.414062-15.40625-34.414062-34.410156v-291.957032c0-19.007812 15.40625-34.414062 34.414062-34.414062h261.382813c19.007813 0 34.414063 15.40625 34.414063 34.414062v291.957032c0 19.003906-15.40625 34.410156-34.414063 34.410156zm0 0" fill="#f9efd1"/><path d="m34.367188 326.371094v-291.957032c0-19.007812 15.40625-34.414062 34.414062-34.414062h-34.367188c-19.007812 0-34.414062 15.40625-34.414062 34.414062v291.957032c0 19.003906 15.40625 34.410156 34.414062 34.410156h34.367188c-19.007812 0-34.414062-15.40625-34.414062-34.410156zm0 0" fill="#e6ddc1"/><path d="m82.554688 305.257812v4.101563c0 22.796875 18.476562 41.277344 41.273437 41.277344s41.277344-18.480469 41.277344-41.277344v-117.515625c0-22.792969 18.480469-41.273438 41.277343-41.273438 22.792969 0 41.273438 18.480469 41.273438 41.273438v5.613281c0 22.796875 18.480469 41.277344 41.277344 41.277344s41.277344 18.480469 41.277344 41.273437v155.882813c0 22.796875-18.480469 41.273437-41.277344 41.273437s-41.277344-18.476562-41.277344-41.273437v-1.140625c0-22.796875-18.480469-41.273438-41.273438-41.273438-22.796874 0-41.277343 18.476563-41.277343 41.273438v35.972656c0 22.796875-18.480469 41.277344-41.277344 41.277344s-41.273437-18.480469-41.273437-41.277344v-23.007812c0-22.796875-18.480469-41.277344-41.277344-41.277344s-41.277344-18.480469-41.277344-41.277344v-59.902344c0-22.796874 18.480469-41.277343 41.277344-41.277343s41.277344 18.480469 41.277344 41.277343zm0 0" fill="#8c6958"/><g fill="#4a5359"><path d="m165.105469 98.15625c-9.996094 0-19.300781-5.386719-24.289063-14.058594-2.0625-3.589844-.824218-8.175781 2.765625-10.238281 3.59375-2.066406 8.175781-.828125 10.238281 2.761719 2.320313 4.03125 6.644532 6.535156 11.285157 6.535156s8.964843-2.503906 11.28125-6.535156c2.066406-3.589844 6.652343-4.828125 10.242187-2.761719 3.589844 2.0625 4.828125 6.648437 2.761719 10.238281-4.984375 8.671875-14.289063 14.058594-24.285156 14.058594zm0 0"/><path d="m232.695312 67.089844c-4.140624 0-7.5-3.359375-7.5-7.5v-12.054688c0-4.140625 3.359376-7.5 7.5-7.5 4.144532 0 7.5 3.359375 7.5 7.5v12.054688c0 4.140625-3.355468 7.5-7.5 7.5zm0 0"/><path d="m97.511719 67.089844c-4.140625 0-7.5-3.359375-7.5-7.5v-12.054688c0-4.140625 3.359375-7.5 7.5-7.5 4.144531 0 7.5 3.359375 7.5 7.5v12.054688c0 4.140625-3.355469 7.5-7.5 7.5zm0 0"/></g><path d="m238.722656 89.867188h-12.050781c-4.144531 0-7.5-3.355469-7.5-7.5 0-4.140626 3.355469-7.5 7.5-7.5h12.050781c4.140625 0 7.5 3.359374 7.5 7.5 0 4.144531-3.359375 7.5-7.5 7.5zm0 0" fill="#e3637b"/><path d="m103.539062 89.867188h-12.050781c-4.144531 0-7.5-3.355469-7.5-7.5 0-4.140626 3.355469-7.5 7.5-7.5h12.050781c4.144532 0 7.5 3.359374 7.5 7.5 0 4.144531-3.359374 7.5-7.5 7.5zm0 0" fill="#e3637b"/></svg>